<svg id="Layer_1" data-name="Layer 1" xmlns="http://www.w3.org/2000/svg" viewBox="0 0 841.89 595.28"><defs><style>.cls-1,.cls-2{fill:#fff;}.cls-1{opacity:0.3;}</style></defs><title>e-INFRA_logo_CMYK</title><path class="cls-1" d="M234.83,278.29a57.86,57.86,0,0,1,45.32-34.09,57.84,57.84,0,1,0-86.35,64.37A57.89,57.89,0,0,1,234.83,278.29Z"/><path class="cls-1" d="M234.83,278.29c3.36-.6,6-5.78,9.49-5.78,11.24,0,26.94-3.1,35.83,2.46,4.14-8,2.11-5.85,2.11-15.46a57.69,57.69,0,0,0-2.11-15.31A57.86,57.86,0,0,0,234.83,278.29Z"/><path class="cls-1" d="M232.07,316.81a56.39,56.39,0,0,1-38.27-8.24,57.84,57.84,0,1,0,104.34,49.82,57.53,57.53,0,0,1-66.07-41.58Z"/><path class="cls-1" d="M262.79,353.67a57.16,57.16,0,0,0,35.35,4.72,57.72,57.72,0,0,0,.79-44.57"/><path class="cls-1" d="M232.07,316.81c-2.2-5-2.82-11.49-1.71-18.09,1.36-8.15,1.35-13.32,4.47-20.43a57.89,57.89,0,0,0-41,30.28,56.39,56.39,0,0,0,38.27,8.24Z"/><path class="cls-2" d="M633.46,368.51a7.24,7.24,0,0,0-3.3-2.51,11,11,0,0,0-8.51.11,10.49,10.49,0,0,0-3.51,2.49,11.07,11.07,0,0,0-2.27,3.71,13.11,13.11,0,0,0-.79,4.62,14.13,14.13,0,0,0,.77,4.8,10.64,10.64,0,0,0,2.2,3.74,9.77,9.77,0,0,0,3.41,2.42,11.3,11.3,0,0,0,4.49.86,9.89,9.89,0,0,0,4.57-1,8.93,8.93,0,0,0,3.21-2.69l4.58,3.21a14.69,14.69,0,0,1-5.21,4.14,16.53,16.53,0,0,1-7.2,1.48,18.57,18.57,0,0,1-6.9-1.25,15.61,15.61,0,0,1-9-8.83,18.06,18.06,0,0,1-1.27-6.86,17.44,17.44,0,0,1,1.34-6.95,15.28,15.28,0,0,1,3.67-5.27,16.35,16.35,0,0,1,5.5-3.36,19.72,19.72,0,0,1,6.88-1.17,19.25,19.25,0,0,1,3.22.29,16.42,16.42,0,0,1,3.21.91,15.35,15.35,0,0,1,2.9,1.51,9.24,9.24,0,0,1,2.31,2.18Z"/><path class="cls-2" d="M650.31,387.89,667.74,366H650.58v-5h23.95v5.16L657,388H674.8v5.07H650.31Z"/><path class="cls-2" d="M354.92,335.25V272.52h15.24v62.73Z"/><path class="cls-2" d="M436.25,335.25l-25.25-41h-.26l.35,41H396.38V272.52h17.28l25.16,40.93h.27l-.36-40.93h14.71v62.73Z"/><path class="cls-2" d="M494.63,285.46v12.93h24.28v12.49H494.63v24.37h-15V272.52h41.28v12.94Z"/><path class="cls-2" d="M577.55,335.25l-13.62-24.9h-5.16v24.9H544V272.52H567.9a41.49,41.49,0,0,1,8.81.93,22.78,22.78,0,0,1,7.71,3.15,16.47,16.47,0,0,1,5.45,5.85,18.22,18.22,0,0,1,2,9,16.67,16.67,0,0,1-3.45,10.72,18.77,18.77,0,0,1-9.57,6.2l16.39,26.85Zm-.62-43.5a6.29,6.29,0,0,0-.93-3.59,6.64,6.64,0,0,0-2.4-2.13,10.71,10.71,0,0,0-3.3-1,25.51,25.51,0,0,0-3.52-.26h-8.1v14.62h7.21a25.23,25.23,0,0,0,3.83-.31,12.36,12.36,0,0,0,3.56-1.11,6.78,6.78,0,0,0,2.63-2.3A6.85,6.85,0,0,0,576.93,291.75Z"/><path class="cls-2" d="M658.53,335.25l-4.88-12.32H629.38l-4.61,12.32H608.29l26.32-62.73h14.7l26.05,62.73Zm-16.84-46-8,21.53h15.77Z"/><path class="cls-2" d="M300.64,309V297.14H327a39.38,39.38,0,0,0-65.17-25.27A39.44,39.44,0,1,0,224.4,299a38.22,38.22,0,0,0,6-.52,30.78,30.78,0,0,1,2.06-7.55,29.56,29.56,0,0,1,6.76-10,30.31,30.31,0,0,1,10.08-6.35,34.69,34.69,0,0,1,12.57-2.25,31.89,31.89,0,0,1,12,2.2,26,26,0,0,1,9.37,6.34A29.42,29.42,0,0,1,289.32,291a38.8,38.8,0,0,1,2.2,13.52v2.37a20.19,20.19,0,0,1-.13,2.25H248.57a10.43,10.43,0,0,0,1.49,4.5,12.6,12.6,0,0,0,3.21,3.51,15.79,15.79,0,0,0,4.38,2.31,15.3,15.3,0,0,0,5,.82,16.33,16.33,0,0,0,7.83-1.71,15.53,15.53,0,0,0,5.22-4.45l13.52,8.54a27.44,27.44,0,0,1-11,9.31,36.29,36.29,0,0,1-15.82,3.27,37.65,37.65,0,0,1-12.58-2.09,30.42,30.42,0,0,1-10.38-6,28,28,0,0,1-7-9.79A32.57,32.57,0,0,1,230,304a37.41,37.41,0,0,1,.4-5.27,39.4,39.4,0,1,0,53.8,42c1.2.11,2.42.18,3.66.18A39.44,39.44,0,0,0,326.53,309Z"/><path class="cls-2" d="M270.69,289.05c-1.94-2.22-4.83-3.33-8.71-3.33a14.59,14.59,0,0,0-5.22.9,13.16,13.16,0,0,0-4.15,2.43,11.87,11.87,0,0,0-2.85,3.61,10.78,10.78,0,0,0-.65,1.68c-.1.53-.22,1.05-.29,1.59h-.07a10,10,0,0,0-.18,1.07h25A11.64,11.64,0,0,0,270.69,289.05Z"/><path class="cls-1" d="M242.71,265.31a57.69,57.69,0,0,0-7.88,13,59.38,59.38,0,0,1,9.2-.92,32.67,32.67,0,0,1,5.54-2.8,34.69,34.69,0,0,1,12.57-2.25,31.89,31.89,0,0,1,12,2.2,26.9,26.9,0,0,1,5.22,2.8c.51-1.57,1-3.18,1.36-4.81"/><path class="cls-1" d="M280.7,272.51a55.68,55.68,0,0,0,1.56-13,57.69,57.69,0,0,0-2.11-15.31,57.76,57.76,0,0,0-37.44,21.11"/><path class="cls-1" d="M230,304c0-.38,0-.74,0-1.12s0-.91,0-1.37a57.59,57.59,0,0,1,4.87-23.21,57.89,57.89,0,0,0-41,30.28,56.39,56.39,0,0,0,38.27,8.24c-.18-.67-.33-1.36-.49-2.05C229.86,310.63,230,307.93,230,304Z"/><path class="cls-1" d="M273.6,297a12.11,12.11,0,0,0-1.19-5.28,59.22,59.22,0,0,1-4,5.28Z"/><path class="cls-1" d="M291.52,304.47v2.37a20.19,20.19,0,0,1-.13,2.25H254c-1.57.93-3.17,1.78-4.82,2.56a9.24,9.24,0,0,0,.9,1.94,12.6,12.6,0,0,0,3.21,3.51,15.79,15.79,0,0,0,4.38,2.31,15.3,15.3,0,0,0,5,.82,16.33,16.33,0,0,0,7.83-1.71,15.53,15.53,0,0,0,5.22-4.45l13.52,8.54a27.44,27.44,0,0,1-11,9.31,36.25,36.25,0,0,1-15.82,3.27,37.65,37.65,0,0,1-12.58-2.09,30.38,30.38,0,0,1-10.37-6,27.93,27.93,0,0,1-7-9.79c-.07-.16-.12-.34-.19-.51l-.25.05a57.53,57.53,0,0,0,66.07,41.58,57.59,57.59,0,0,0-6.8-58C291.45,301.73,291.52,303.07,291.52,304.47Z"/><path class="cls-1" d="M300.64,309V297.14h44.83a57.83,57.83,0,0,0-57.65-53.51,57,57,0,0,0-7.67.57,57.69,57.69,0,0,1,2.11,15.31c0,9.61,3.37,15.86,6.57,23.49C299.48,295.73,303,314.47,303,335.19a57.59,57.59,0,0,1-4.88,23.2,57.84,57.84,0,0,0,47-49.38Z"/></svg>